<svg width="17" height="19" viewBox="0 0 17 19" fill="none" xmlns="http://www.w3.org/2000/svg">
<path d="M0 7.45098C0 3.93855 -1.11244e-07 2.18235 1.09329 1.09117C2.18659 1.11028e-07 3.94622 0 7.46549 0H9.33186C12.8511 0 14.6108 1.11028e-07 15.704 1.09117C16.7973 2.18235 16.7973 3.93855 16.7973 7.45098V11.1765C16.7973 14.6889 16.7973 16.4452 15.704 17.5363C14.6108 18.6275 12.8511 18.6275 9.33186 18.6275H7.46549C3.94622 18.6275 2.18659 18.6275 1.09329 17.5363C-1.11244e-07 16.4452 0 14.6889 0 11.1765V7.45098Z" fill="black"/>
<path fill-rule="evenodd" clip-rule="evenodd" d="M3.96606 9.31376C3.96606 8.92799 4.27942 8.61523 4.66595 8.61523H12.1314C12.518 8.61523 12.8313 8.92799 12.8313 9.31376C12.8313 9.69954 12.518 10.0123 12.1314 10.0123H4.66595C4.27942 10.0123 3.96606 9.69954 3.96606 9.31376Z" fill="#ECEDEF"/>
<path fill-rule="evenodd" clip-rule="evenodd" d="M3.96606 5.58818C3.96606 5.20239 4.27942 4.88965 4.66595 4.88965H12.1314C12.518 4.88965 12.8313 5.20239 12.8313 5.58818C12.8313 5.97396 12.518 6.28671 12.1314 6.28671H4.66595C4.27942 6.28671 3.96606 5.97396 3.96606 5.58818Z" fill="#ECEDEF"/>
<path fill-rule="evenodd" clip-rule="evenodd" d="M3.96606 13.0392C3.96606 12.6535 4.27942 12.3407 4.66595 12.3407H9.33188C9.71841 12.3407 10.0318 12.6535 10.0318 13.0392C10.0318 13.425 9.71841 13.7378 9.33188 13.7378H4.66595C4.27942 13.7378 3.96606 13.425 3.96606 13.0392Z" fill="#ECEDEF"/>
</svg>
